<?xml version="1.0" encoding="UTF-8" standalone="no"?>
<svg
   xmlns:dc="http://purl.org/dc/elements/1.1/"
   xmlns:cc="http://creativecommons.org/ns#"
   xmlns:rdf="http://www.w3.org/1999/02/22-rdf-syntax-ns#"
   xmlns:svg="http://www.w3.org/2000/svg"
   xmlns="http://www.w3.org/2000/svg"
   xmlns:sodipodi="http://sodipodi.sourceforge.net/DTD/sodipodi-0.dtd"
   xmlns:inkscape="http://www.inkscape.org/namespaces/inkscape"
   width="60"
   height="60"
   viewBox="0 0 60 60"
   version="1.1"
   id="svg12"
   sodipodi:docname="tartar.svg"
   inkscape:version="1.0.1 (3bc2e813f5, 2020-09-07)">
  <metadata
     id="metadata18">
    <rdf:RDF>
      <cc:Work
         rdf:about="">
        <dc:format>image/svg+xml</dc:format>
        <dc:type
           rdf:resource="http://purl.org/dc/dcmitype/StillImage" />
        <dc:title></dc:title>
      </cc:Work>
    </rdf:RDF>
  </metadata>
  <defs
     id="defs16" />
  <sodipodi:namedview
     pagecolor="#ffffff"
     bordercolor="#666666"
     borderopacity="1"
     objecttolerance="10"
     gridtolerance="10"
     guidetolerance="10"
     inkscape:pageopacity="0"
     inkscape:pageshadow="2"
     inkscape:window-width="1920"
     inkscape:window-height="1017"
     id="namedview14"
     showgrid="false"
     inkscape:pagecheckerboard="true"
     showborder="false"
     inkscape:zoom="3.5416667"
     inkscape:cx="35.845154"
     inkscape:cy="24.899465"
     inkscape:window-x="1912"
     inkscape:window-y="594"
     inkscape:window-maximized="1"
     inkscape:current-layer="svg12" />
  <g
     transform="translate(-390.945,-267.64)"
     id="g10">
    <path
       d="m 413.573,295.24 -3.117,1.248 a 2.075,2.075 0 0 1 -2.626,-2.848 l 0.687,-1.374 a 2,2 0 0 0 -0.375,-2.31 l -4.783,-4.782 1.293,-1.293 a 1,1 0 0 0 0,-1.414 l -3.293,-3.293 0.293,-0.293 a 1,1 0 0 0 0.02,-1.394 l -9,-9.533 a 1,1 0 0 0 -1.727,0.686 v 13 a 1,1 0 0 0 0.355,0.764 l 3,2.536 a 1,1 0 0 0 1.352,-0.057 l 0.293,-0.3 3.293,3.293 a 1,1 0 0 0 1.414,0 l 1.293,-1.293 4.783,4.783 -0.683,1.37 a 4.071,4.071 0 0 0 5.157,5.6 l 3.119,-1.246 z m -18.335,-12.771 -0.35,0.35 -1.943,-1.643 v -10.02 l 6.606,7 -0.313,0.313 z m 4.707,3.29 -2.586,-2.586 2.586,-2.586 2.586,2.589 z"
       fill="#ffffff"
       id="path2" />
    <path
       d="m 450.328,296.716 a 1,1 0 0 0 -1.09,0.217 l -14,14 a 1,1 0 0 0 0,1.414 l 0.793,0.793 -3.924,3.924 a 9.66,9.66 0 0 0 -5.162,-1.424 c -4.411,0 -8,2.69 -8,6 0,3.31 3.589,6 8,6 4.411,0 8,-2.691 8,-6 a 4.966,4.966 0 0 0 -1.308,-3.277 l 3.808,-3.808 0.793,0.793 a 1,1 0 0 0 1.414,0 l 11,-11 a 1,1 0 0 0 0.293,-0.708 v -6 a 1,1 0 0 0 -0.617,-0.924 z m -23.383,28.923 c -3.252,0 -6,-1.831 -6,-4 0,-2.169 2.748,-4 6,-4 3.252,0 6,1.832 6,4 0,2.168 -2.745,4 -6,4 z m 22,-22.413 -10,10 -1.586,-1.586 11.586,-11.586 z"
       fill="#ffffff"
       id="path4" />
    <path
       d="m 425.424,301.434 a 4.541,4.541 0 0 0 -8.958,0 l -3.021,18.126 a 2.489,2.489 0 0 1 -4.921,-0.072 L 405.936,300.5 a 1,1 0 0 0 -0.143,-0.4 l -0.556,-0.891 a 28.153,28.153 0 0 1 -3.61,-8.8 l -1.953,0.436 a 30.165,30.165 0 0 0 3.871,9.43 l 0.442,0.708 2.56,18.769 a 4.488,4.488 0 0 0 8.874,0.133 l 3.021,-18.126 a 2.539,2.539 0 0 1 5.01,0 l 2.007,12.041 1.972,-0.33 z"
       fill="#ffffff"
       id="path6" />
    <path
       d="m 430.329,271.64 a 12.614,12.614 0 0 0 -4.969,1.02 11.262,11.262 0 0 1 -8.83,0 12.614,12.614 0 0 0 -14.327,3.134 l 1.484,1.346 a 10.614,10.614 0 0 1 12.055,-2.643 13.259,13.259 0 0 0 10.406,0 10.617,10.617 0 0 1 14.8,9.759 28.2,28.2 0 0 1 -4.292,14.963 l -0.556,0.891 a 0.972,0.972 0 0 0 -0.142,0.4 l -0.819,6 1.981,0.271 0.79,-5.787 0.442,-0.708 a 30.2,30.2 0 0 0 4.6,-16.029 12.616,12.616 0 0 0 -12.623,-12.617 z"
       fill="#ffffff"
       id="path8" />
  </g>
</svg>
